<svg width="205" height="54" viewBox="0 0 205 54" fill="none" xmlns="http://www.w3.org/2000/svg">
<path d="M60.3384 4.28735H71.1717V20.4227H60.3384V4.28735ZM63.7949 7.74534V16.9654H67.7145V7.74534H63.7949Z" fill="black"/>
<path d="M75.2976 4.28735H84.0107V16.9654H85.3477V22.5436H81.8897V20.4227H75.7123V22.5436H72.2543V16.9654H73.5913L75.2976 4.28735ZM76.9563 16.9654H80.552V7.74534H78.2237L76.9563 16.9654Z" fill="black"/>
<path d="M94.8668 4.28736H98.3241V20.4227H94.8668V10.7879L90.3026 20.4227H86.8453V7.74461V4.28662H90.3026V13.9214L94.8668 4.28736Z" fill="black"/>
<path d="M100.63 4.28735H104.087V10.5579H108.006V4.28735H111.464V20.4227H108.006V14.0144H104.087V20.4227H100.63V7.7446V4.28735Z" fill="black"/>
<path d="M113.769 20.4227V7.74461V4.28662H117.226V16.9647H121.029V4.28662H124.486V16.9647H125.962V22.5429H122.504V20.4219H113.769V20.4227Z" fill="black"/>
<path d="M127.461 4.28735H138.294V20.4227H127.461V4.28735ZM130.918 7.74534V16.9654H134.837V7.74534H130.918Z" fill="black"/>
<path d="M140.599 4.28735H151.433V10.7418L149.427 12.3557L151.433 13.969V20.4234H140.599V4.28735ZM147.975 7.74534H144.056V10.7418H146.73L147.975 9.56665V7.74534H147.975ZM144.057 13.969V16.9654H147.976V15.1448L146.731 13.9697H144.057V13.969Z" fill="black"/>
<path d="M153.738 4.28735H164.571V9.31242H161.114V7.7446H157.194V16.9647H161.114V15.3968H164.571V20.4219H153.738V4.28735Z" fill="black"/>
<path d="M170.103 14.0144V20.4227H166.646V7.74461V4.28662H170.103V10.5572H171.694L174.713 4.28662H178.355L174.461 12.0781L178.586 20.4227H174.783L171.695 14.0144H170.103Z" fill="black"/>
<path d="M187.759 4.28736H191.217V20.4227H187.759V10.7879L183.195 20.4227H179.738V7.74461V4.28662H183.195V13.9214L187.759 4.28736Z" fill="black"/>
<path d="M201.543 4.28732H205V20.4226H201.543V10.7879L196.978 20.4226H193.521V7.74456V4.28658H196.978V13.9213L201.543 4.28732ZM196.381 0H202.143V2.88141H196.381V0Z" fill="black"/>
<path d="M59.9329 31.8376H66.9551V41.3273H64.4883V34.2531H62.4003V41.3273H59.9329V31.8376Z" fill="black"/>
<path d="M68.4557 31.8376H75.5292V41.3273H68.4557V31.8376ZM70.9232 34.2531V38.9119H73.0624V34.2531H70.9232Z" fill="black"/>
<path d="M83.552 37.6701V41.3273H81.0846V37.6701H80.4977L78.9109 41.3273H76.3745L78.7211 36.4275L76.4954 31.8369H79.0142L80.497 35.4253H81.0838V34.2516V31.8362H83.5513V35.4246H84.1374L85.621 31.8362H88.1397L85.914 36.4268L88.2606 41.3266H85.7243L84.1367 37.6693H83.552V37.6701Z" fill="black"/>
<path d="M89.6934 31.8376H94.7661L95.9391 41.3273H93.5236L93.3339 39.2738H91.1257L90.9352 41.3273H88.5198L89.6934 31.8376ZM91.3668 36.8583H93.0921L92.8503 34.2524H91.6085L91.3668 36.8583Z" fill="black"/>
<path d="M96.9568 31.8376H103.979V38.5844H99.4243V41.3273H96.9568V31.8376ZM99.4243 34.2531V36.3411H101.512V34.2531H99.4243Z" fill="black"/>
<path d="M105.514 31.8376H107.982V35.3403H110.121V31.8376H112.588V41.3273H110.121V37.7558H107.982V41.3273H105.514V34.2531V31.8376Z" fill="black"/>
<path d="M114.209 41.3273V34.2531V31.8376H116.675V34.9271H121.058V41.3273H114.209ZM116.676 39.084H118.764V37.1697H116.676V39.084ZM122.594 31.8376H125.061V41.3273H122.594V31.8376Z" fill="black"/>
<path d="M131.877 31.8377H134.343V41.3274H131.877V35.7367L129.15 41.3274H126.682V34.2532V31.8377H129.15V37.4284L131.877 31.8377ZM128.528 28.9402H132.497V30.752H128.528V28.9402Z" fill="black"/>
<path d="M140.329 41.3273V34.2531V31.8376H142.796V38.9119H144.763V31.8376H147.23V38.8606H148.093V42.7413H145.625V41.3273H140.329Z" fill="black"/>
<path d="M149.11 31.8376H155.701V34.0817H151.578V35.4612H153.63V37.7052H151.578V39.0848H155.701V41.3288H149.11V34.2546V31.8376Z" fill="black"/>
<path d="M157.08 31.8376H159.549V35.3403H161.688V31.8376H164.155V41.3273H161.688V37.7558H159.549V41.3273H157.08V34.2531V31.8376Z" fill="black"/>
<path d="M165.224 31.8376H172.245V34.2531H169.969V41.3273H167.502V34.2531H165.224V31.8376H165.224Z" fill="black"/>
<path d="M173.315 31.8376H180.337V38.5844H175.782V41.3273H173.315V31.8376ZM175.782 34.2531V36.3411H177.87V34.2531H175.782Z" fill="black"/>
<path fill-rule="evenodd" clip-rule="evenodd" d="M14.5508 16.448V33.354H19.5773V21.3288H26.4303V33.354H31.4568V16.448H14.5508Z" fill="black"/>
<path fill-rule="evenodd" clip-rule="evenodd" d="M0 47.9026V1.89893H46.008V42.5024H51.4111V53.3086H40.6049V47.9026H0ZM7.89694 40.0078H38.1089V9.79587H7.89694V40.0078Z" fill="#EA0000"/>
</svg>
